Patient4_TMGait_0pt6_02_left_10_GRF.mot
version=1
nRows=65
nColumns=19
inDegrees=no
endheader
time	F1x	F1y	F1z	M1x	M1y	M1z	F2x	F2y	F2z	M2x	M2y	M2z	EC1x	EC1y	EC1z	EC2x	EC2y	EC2z
12.21	-8.2328	5.6236	-0.93543	-1.8963	-3.6235	7.779	-58.1728	682.5733	-54.3516	271.2866	75.5035	720.2265	-0.0592	0.0182	-0.0073	-0.0462	0.0165	0.9585
12.2233	-5.5853	4.6457	-0.57346	-1.5836	-2.4788	6.1686	-54.4763	680.8856	-55.2612	269.4887	75.3719	716.7753	-0.0592	0.0182	-0.0073	-0.0462	0.0165	0.9585
12.2366	-3.3541	3.8531	-0.29757	-1.3221	-1.4856	4.8409	-50.4252	679.7332	-55.7686	268.0352	74.526	712.7085	-0.0592	0.0182	-0.0073	-0.0462	0.0165	0.9585
12.2499	-1.6641	3.2806	-0.10794	-1.1295	-0.71401	3.8671	-46.2135	680.2329	-55.8693	267.4554	73.0189	709.158	-0.0592	0.0182	-0.0073	-0.0462	0.0165	0.9585
12.2631	-0.50753	2.9152	0.014091	-1.0067	-0.17999	3.234	-41.9564	683.5026	-55.6285	268.2329	70.9826	707.3491	-0.0592	0.0182	-0.0073	-0.0462	0.0165	0.9585
12.2764	0.18803	2.7147	0.083613	-0.94238	0.1396	2.8783	-37.6726	690.3384	-55.1421	270.6892	68.5595	708.2161	-0.0592	0.0182	-0.0073	-0.0462	0.0165	0.9585
12.2897	0.53112	2.617	0.12643	-0.9158	0.27863	2.7039	-33.3178	701.0225	-54.4917	274.9158	65.8538	712.1793	-0.0592	0.0182	-0.0073	-0.0462	0.0165	0.9585
12.303	0.61386	2.5574	0.15312	-0.90189	0.28497	2.6174	-28.8077	715.2459	-53.7519	280.751	62.9445	719.0611	-0.0592	0.0182	-0.0073	-0.0462	0.0165	0.9585
12.3163	0.51928	2.4518	0.17827	-0.86998	0.19391	2.5021	-24.1185	732.131	-52.9885	287.7889	59.9135	728.1489	-0.0592	0.0182	-0.0073	-0.0462	0.0165	0.9585
12.3296	0.30421	2.2113	0.20542	-0.7895	0.035971	2.2522	-19.2949	750.2725	-52.2601	295.4025	56.853	738.2296	-0.0592	0.0182	-0.0073	-0.0462	0.0165	0.9585
12.3429	0.019119	1.7409	0.24315	-0.62687	-0.16629	1.7515	-14.4549	767.8524	-51.6262	302.7972	53.8806	747.7163	-0.0592	0.0182	-0.0073	-0.0462	0.0165	0.9585
12.3561	-0.28692	0.95028	0.29184	-0.34818	-0.38258	0.88947	-9.7366	782.896	-51.1378	309.1205	51.1086	754.8905	-0.0592	0.0182	-0.0073	-0.0462	0.0165	0.9585
12.3694	-0.56993	-0.22137	0.35256	0.072962	-0.58702	-0.402	-5.2543	793.6354	-50.8142	313.6179	48.6023	758.232	-0.0592	0.0182	-0.0073	-0.0462	0.0165	0.9585
12.3827	-0.75105	-1.7849	0.41875	0.64344	-0.74551	-2.1444	-1.0928	798.8163	-50.6457	315.7591	46.3842	756.6887	-0.0592	0.0182	-0.0073	-0.0462	0.0165	0.9585
12.396	-0.74135	-3.6598	0.47524	1.3355	-0.8092	-4.2358	2.7394	797.8841	-50.6278	315.3146	44.4547	749.8227	-0.0592	0.0182	-0.0073	-0.0462	0.0165	0.9585
12.4093	-0.40475	-5.628	0.49838	2.0653	-0.70518	-6.4269	6.2755	791.098	-50.7652	312.4004	42.8043	737.9098	-0.0592	0.0182	-0.0073	-0.0462	0.0165	0.9585
12.4226	0.41816	-7.2468	0.4533	2.6645	-0.33815	-8.229	9.579	779.4787	-51.0797	307.4532	41.425	721.8845	-0.0592	0.0182	-0.0073	-0.0462	0.0165	0.9585
12.4359	1.9085	-7.7833	0.29632	2.8561	0.40491	-8.8352	12.7317	764.6079	-51.5827	301.1429	40.2914	703.1691	-0.0592	0.0182	-0.0073	-0.0462	0.0165	0.9585
12.4491	4.2382	-6.1553	-0.033186	2.2346	1.6521	-7.058	15.8061	748.3092	-52.2743	294.2388	39.3712	683.3871	-0.0592	0.0182	-0.0073	-0.0462	0.0165	0.9585
12.4624	7.4923	-0.90739	-0.60075	0.2609	3.5037	-1.2896	18.8774	732.3393	-53.1159	287.4827	38.5964	664.0835	-0.0592	0.0182	-0.0073	-0.0462	0.0165	0.9585
12.4757	11.6056	9.7087	-1.4695	-3.7124	6.0031	10.3954	21.9838	718.1233	-54.0519	281.474	37.9002	646.5231	-0.0592	0.0182	-0.0073	-0.0462	0.0165	0.9585
12.489	16.2225	27.5369	-2.6707	-10.3653	9.0586	30.0431	25.121	706.4942	-54.9837	276.5682	37.1966	631.4555	-0.0592	0.0182	-0.0073	-0.0462	0.0165	0.9585
12.5023	20.5699	54.0937	-4.1788	-20.2567	12.3573	59.3471	28.2244	697.5244	-55.7663	272.8087	36.3877	618.9862	-0.0592	0.0182	-0.0073	-0.0462	0.0165	0.9585
12.5156	23.3001	89.9207	-5.855	-33.5851	15.2466	98.9542	31.17	690.4505	-56.18	269.8974	35.3432	608.5111	-0.0592	0.0182	-0.0073	-0.0462	0.0165	0.9585
12.5289	22.6461	133.927	-7.4065	-49.9401	16.7582	147.7284	33.7995	683.6807	-55.9671	267.2032	33.9199	598.7097	-0.0592	0.0182	-0.0073	-0.0462	0.0165	0.9585
12.5421	17.4236	183.2304	-8.4134	-68.2344	15.9963	202.5212	35.9571	675.0017	-54.8761	263.8424	31.9783	587.7311	-0.0592	0.0182	-0.0073	-0.0462	0.0165	0.9585
12.5554	8.3634	233.281	-8.2311	-86.7428	12.5323	258.2351	37.5383	661.9504	-52.7281	258.8318	29.4215	573.4793	-0.0592	0.0182	-0.0073	-0.0462	0.0165	0.9585
12.5687	-2.068	279.1799	-6.3746	-103.6267	6.759	309.1344	38.4742	642.2333	-49.4735	251.256	26.2483	553.9806	-0.0592	0.0182	-0.0073	-0.0462	0.0165	0.9585
12.582	-11.9506	318.3232	-3.1531	-117.9321	-0.24915	351.9853	38.7474	614.1739	-45.1999	240.4392	22.5493	527.7897	-0.0592	0.0182	-0.0073	-0.0462	0.0165	0.9585
12.5953	-20.2563	351.5723	0.74315	-130.0024	-7.3592	387.5169	38.3867	577.0424	-40.136	226.0748	18.5067	494.2597	-0.0592	0.0182	-0.0073	-0.0462	0.0165	0.9585
12.6086	-26.6315	381.6883	4.7166	-140.8799	-13.7837	418.721	37.4176	531.1239	-34.5538	208.2591	14.3256	453.6292	-0.0592	0.0182	-0.0073	-0.0462	0.0165	0.9585
12.6219	-31.0794	411.7	8.427	-151.6766	-19.1537	448.9168	35.8581	477.5373	-28.7009	187.423	10.1861	406.8465	-0.0592	0.0182	-0.0073	-0.0462	0.0165	0.9585
12.6351	-33.7084	443.9377	11.8835	-163.2097	-23.5204	480.6214	33.6662	418.0635	-22.7813	164.2562	6.2488	355.4358	-0.0592	0.0182	-0.0073	-0.0462	0.0165	0.9585
12.6484	-34.7648	479.8186	15.327	-175.9225	-27.2353	515.4216	30.8142	354.9744	-17.0318	139.6399	2.6986	301.3144	-0.0592	0.0182	-0.0073	-0.0462	0.0165	0.9585
12.6617	-34.5343	519.7971	19.1423	-189.8892	-30.8153	553.8931	27.3152	290.9326	-11.7308	114.6062	-0.26174	246.7026	-0.0592	0.0182	-0.0073	-0.0462	0.0165	0.9585
12.675	-33.3924	563.2795	23.6986	-204.8035	-34.7841	595.5579	23.2699	228.8461	-7.1658	90.2876	-2.4514	194.0024	-0.0592	0.0182	-0.0073	-0.0462	0.0165	0.9585
12.6883	-31.7334	608.6541	29.1811	-220.0277	-39.4789	638.8476	18.9188	171.5908	-3.5442	67.8122	-3.7955	145.5523	-0.0592	0.0182	-0.0073	-0.0462	0.0165	0.9585
12.7016	-29.9312	653.7055	35.5289	-234.7545	-44.9676	681.5455	14.5814	121.5924	-0.94325	48.1379	-4.3469	103.3201	-0.0592	0.0182	-0.0073	-0.0462	0.0165	0.9585
12.7149	-28.2061	696.1021	42.3483	-248.1896	-50.926	721.3034	10.5891	80.339	0.7095	31.867	-4.2749	68.4922	-0.0592	0.0182	-0.0073	-0.0462	0.0165	0.9585
12.7281	-26.5815	733.6977	49.0318	-259.647	-56.7487	755.9501	7.1264	48.2617	1.5767	19.188	-3.7624	41.4173	-0.0592	0.0182	-0.0073	-0.0462	0.0165	0.9585
12.7414	-25.0567	764.6431	54.9571	-268.5608	-61.8097	783.6698	4.278	24.9198	1.8717	9.9444	-3.0018	21.7179	-0.0592	0.0182	-0.0073	-0.0462	0.0165	0.9585
12.7547	-23.5753	787.428	59.7407	-274.4853	-65.7071	802.9983	2.0917	9.2814	1.7758	3.7395	-2.1519	8.5166	-0.0592	0.0182	-0.0073	-0.0462	0.0165	0.9585
12.768	-22.094	801.1037	63.217	-277.1612	-68.2652	813.0679	0.55566	-0.055901	1.4704	0.025456	-1.3578	0.63077	-0.0592	0.0182	-0.0073	-0.0462	0.0165	0.9585
12.7813	-20.5818	805.5438	65.3884	-276.6096	-69.4845	813.848	-0.39978	-4.7096	1.095	-1.829	-0.71069	-3.3239	-0.0592	0.0182	-0.0073	-0.0462	0.0165	0.9585
12.7946	-19.0281	801.6974	66.3507	-273.2176	-69.472	806.3759	-0.9162	-6.1941	0.73004	-2.4223	-0.22729	-4.6205	-0.0592	0.0182	-0.0073	-0.0462	0.0165	0.9585
12.8079	-17.4801	791.5236	66.2741	-267.7088	-68.4298	792.6833	-1.1107	-5.7848	0.41821	-2.2581	0.10272	-4.3467	-0.0592	0.0182	-0.0073	-0.0462	0.0165	0.9585
12.8211	-16.0009	777.5724	65.4301	-260.995	-66.6645	775.347	-1.1096	-4.4262	0.17284	-1.7124	0.31347	-3.287	-0.0592	0.0182	-0.0073	-0.0462	0.0165	0.9585
12.8344	-14.6779	762.51	64.1512	-254.0106	-64.5441	757.0324	-1.0079	-2.7545	-0.0018647	-1.0397	0.43304	-1.9617	-0.0592	0.0182	-0.0073	-0.0462	0.0165	0.9585
12.8477	-13.5651	748.6681	62.7674	-247.5669	-62.4128	740.0154	-0.86086	-1.1582	-0.11853	-0.39437	0.48947	-0.6984	-0.0592	0.0182	-0.0073	-0.0462	0.0165	0.9585
12.861	-12.6798	737.7731	61.5182	-242.2647	-60.5064	725.9404	-0.72617	0.17391	-0.18739	0.14786	0.50667	0.3564	-0.0592	0.0182	-0.0073	-0.0462	0.0165	0.9585
12.8743	-12.0018	730.7731	60.5227	-238.4401	-58.9291	715.66	-0.60212	1.1645	-0.22661	0.55775	0.50151	1.1295	-0.0592	0.0182	-0.0073	-0.0462	0.0165	0.9585
12.8876	-11.4781	727.8366	59.7829	-236.1652	-57.662	709.2531	-0.51077	1.8405	-0.24253	0.84241	0.48032	1.6584	-0.0592	0.0182	-0.0073	-0.0462	0.0165	0.9585
12.9009	-11.0493	728.4829	59.2248	-235.2888	-56.6124	706.1711	-0.44578	2.2591	-0.2463	1.022	0.44828	1.9896	-0.0592	0.0182	-0.0073	-0.0462	0.0165	0.9585
12.9141	-10.6374	731.7414	58.7315	-235.4933	-55.6456	705.4055	-0.40541	2.502	-0.23742	1.1265	0.40877	2.2006	-0.0592	0.0182	-0.0073	-0.0462	0.0165	0.9585
12.9274	-10.1691	736.3721	58.1627	-236.3674	-54.603	705.7203	-0.39234	2.6455	-0.21959	1.1849	0.37024	2.3587	-0.0592	0.0182	-0.0073	-0.0462	0.0165	0.9585
12.9407	-9.571	741.1141	57.3725	-237.4852	-53.3235	705.8775	-0.38945	2.7352	-0.19533	1.2167	0.33461	2.4843	-0.0592	0.0182	-0.0073	-0.0462	0.0165	0.9585
12.954	-8.7639	744.9259	56.2467	-238.4863	-51.6778	704.8726	-0.4087	2.8104	-0.16861	1.2373	0.31068	2.6105	-0.0592	0.0182	-0.0073	-0.0462	0.0165	0.9585
12.9673	-7.6748	747.1563	54.7409	-239.1336	-49.6051	702.095	-0.4325	2.8636	-0.14334	1.2482	0.29809	2.7126	-0.0592	0.0182	-0.0073	-0.0462	0.0165	0.9585
12.9806	-6.251	747.6383	52.8783	-239.3433	-47.1069	697.4144	-0.46859	2.8888	-0.12647	1.246	0.30216	2.7855	-0.0592	0.0182	-0.0073	-0.0462	0.0165	0.9585
12.9939	-4.4665	746.6422	50.77	-239.1673	-44.2681	691.1281	-0.51329	2.8437	-0.12025	1.2137	0.32246	2.7727	-0.0592	0.0182	-0.0073	-0.0462	0.0165	0.9585
13.0071	-2.2876	744.7418	48.572	-238.7539	-41.2116	683.8144	-0.56813	2.6672	-0.13182	1.1244	0.36465	2.6058	-0.0592	0.0182	-0.0073	-0.0462	0.0165	0.9585
13.0204	0.30979	742.6092	46.4836	-238.2843	-38.1034	676.1488	-0.64189	2.2844	-0.16398	0.94387	0.4319	2.2096	-0.0592	0.0182	-0.0073	-0.0462	0.0165	0.9585
13.0337	3.3176	740.8453	44.6746	-237.9198	-35.0953	668.7454	-0.7244	1.5967	-0.22324	0.62931	0.53091	1.4726	-0.0592	0.0182	-0.0073	-0.0462	0.0165	0.9585
13.047	6.6526	739.847	43.3248	-237.7616	-32.3782	662.0187	-0.82101	0.53325	-0.30834	0.1453	0.66181	0.32934	-0.0592	0.0182	-0.0073	-0.0462	0.0165	0.9585
13.0603	10.1788	739.7611	42.5681	-237.8436	-30.1191	656.138	-0.8968	-0.95827	-0.42436	-0.53123	0.81418	-1.2805	-0.0592	0.0182	-0.0073	-0.0462	0.0165	0.9585
